<?xml version="1.0" encoding="utf-8"?>
<!-- Generator: Adobe Illustrator 19.1.0, SVG Export Plug-In . SVG Version: 6.00 Build 0)  -->
<svg version="1.1" id="Layer_1" xmlns="http://www.w3.org/2000/svg" xmlns:xlink="http://www.w3.org/1999/xlink" x="0px" y="0px"
	 width="545px" height="220px" viewBox="0 0 545 220" enable-background="new 0 0 545 220" xml:space="preserve">
<g>
	<path fill-rule="evenodd" clip-rule="evenodd" fill="#02303A" d="M184.9,101.7c4-9.2,3.9-18.3,1.5-25.5c-3-8.8-15.3-20.4-19.2-15.8
		c-0.5,0.6-7.6-0.2-8.7,1.3c-1.7,2.2-0.7,2.9,0.1,3.7c2.5,2.2,8.8,4.6,11.7,12.1c1.2,3.2,4,10.6-0.9,15.1c-5.5,5-11.7,6.2-37.1-17.4
		c-27-25.1-63.2-14.9-75.2-10.9c-12,4-17.5,8-12.8,17.2c6.4,12.6,4.3,8.7,10.6,19.1c9.9,16.5,31.7-7.6,31.7-7.6
		c-16.2,24.4-30.1,18.5-35.4,10c-4.8-7.7-8.5-16.5-8.5-16.5c-41,14.8-29.9,80-29.9,80h20.4c5.2-24,23.8-23.1,26.9,0h15.5
		c13.7-46.9,43.1,0,43.1,0h17.4c0-25-2.6-34.4,10.2-36.2C168.1,127.4,178.3,117.2,184.9,101.7z"/>
	<g>
		<g>
			<g>
				<path fill="#22DA27" d="M258.4,95.4v9.9c2.1-3.6,6.9-11.8,22.5-11.3l-0.1,17.1c-3.6,0.1-9.9,0.2-15,4.1
					c-7.1,5.4-7.4,12.5-7.4,24v26.3h-16.1V95.3L258.4,95.4z"/>
				<path fill="#22DA27" d="M287.6,116.4c0.3-3.5,0.6-6.9,2.8-10.9c6.7-12.1,23.2-12,27.7-12c6.7,0,14.7,0.9,20.8,4.5
					c8.2,5,8.3,11.6,8.3,19.1l-0.1,36.8c0,5.3,0,7.4,3,11.6h-19.7c-0.1-1.7-0.4-4.9-0.4-5.8c-3.6,3-11,7-20.6,7
					c-15.7-0.1-25.1-9.8-25.1-21.8c0-3.5,0.9-6.7,2.3-9.4c5-10,15.7-12.2,22.4-13.4c22.7-3.8,21.4-6,21-9.4
					c-0.3-3.2-3.6-6.2-11.3-6.2c-6.9,0-10.7,2.2-12.4,4.4c-1.8,2.2-1.7,3.6-1.7,5.6H287.6z M330.4,130.5c-3.3,1.7-7.1,2.9-14.6,4.1
					c-6,0.8-13.9,2.2-13.9,9.5c0,5.4,4.6,8.2,11.2,8.2c8.5,0,14.5-3.8,16.3-8c1-2.1,1-4.2,1-6.2L330.4,130.5z"/>
				<path fill="#22DA27" d="M421.8,67.3l-0.3,98.2h-16.5v-6.8c-5.2,6.2-12.1,8.7-19.3,8.7c-16.5-0.1-30.8-12.5-30.7-35.4
					c0.1-20.7,11.8-38.3,31.7-38.2c6.8,0,13.1,2,18.4,7.8V67.3H421.8z M401.2,115.6c-2.5-3.8-6.6-6.4-12.2-6.4
					c-11.3,0-16.7,10.1-16.7,21.1c0,1.3,0.1,22.1,16.3,22.1c8.6,0,16.4-6.3,16.3-21.3C404.7,126.6,404.2,120.2,401.2,115.6z"/>
				<path fill="#22DA27" d="M450.8,67.3l-0.3,98.2h-16.8V67.3H450.8z"/>
				<path fill="#22DA27" d="M525.3,149.2c-7.7,13.6-17.5,18.6-31.7,18.6c-18.2-0.1-35.7-11.6-35.6-37.2
					c0.1-23.3,15.1-36.5,34.7-36.4c18.3,0.1,25.9,11.1,27.3,13.1c5.7,8.1,6.9,20.2,7,27.1l-51.4-0.2c1.9,11,8.7,17.3,19.7,17.3
					c11.4,0,14.4-6.7,16.5-9.6L525.3,149.2z M508.8,122.1c-1.5-10.8-8.1-14.6-15.5-14.6c-8.9,0-15,5.1-17,14.5L508.8,122.1z"/>
			</g>
		</g>
		<g>
			<path fill="#22DA27" d="M191,114.2v14.4h24.6v16.9c-6.3,4-13.5,6.3-23.8,6.3c-16.6,0-30.3-13.9-30.3-35.6
				c0-21.3,12.6-35.5,31.8-35.5c15.4,0,21.2,12.7,22.1,17.5c7.8,0,4.3,0,16.8,0c0-9.8-11.6-33.9-40.4-33.9
				c-30.5,0-48.5,21.6-48.5,52c0,31.6,21.6,51.4,47.4,51.4c38.2,0,41.5-19.1,41.5-19.1v-34.4H191z"/>
		</g>
	</g>
	<path fill-rule="evenodd" clip-rule="evenodd" fill="#02303A" d="M188,84.8c-3.7,0.3-7.4,0.9-10.9,1.9c-0.1,0.1-0.2,0.3-0.3,0.4
		c-1.6,1.8-3.6,3.5-5.8,4.5c-0.3,0.2-0.6,0.3-0.9,0.4c-0.2,0.2-0.4,0.4-0.6,0.6c-5.5,5-12.2,6.2-37.1-17.4
		c-26.7-25.3-63.2-14.9-75.2-10.9c-12,4-17.5,8-12.8,17.2c6.4,12.6,4.3,8.7,10.6,19.1c9.9,16.5,31.7-7.6,31.7-7.6
		c-16.2,24.4-30.1,18.5-35.4,10c-4.8-7.7-8.5-16.5-8.5-16.5c-41,14.8-29.9,80-29.9,80h20.4c5.2-24,23.8-23.1,26.9,0h15.5
		c13.7-46.9,43.1,0,43.1,0h17.4c0-25-2.6-34.4,10.2-36.2c21.9-3,32-13.2,38.6-28.6C187.4,95.9,188.3,90.1,188,84.8z"/>
	<g>
		<path fill-rule="evenodd" clip-rule="evenodd" fill="#FFFFFF" d="M114.1,91.3c0,0,9.4,3.1,22,7.3c-0.7,3.4-7,9.9-15.1,7.1
			C110.2,102.2,114.1,91.3,114.1,91.3z"/>
		
			<ellipse transform="matrix(0.9944 -0.1056 0.1056 0.9944 -9.6641 13.7294)" fill-rule="evenodd" clip-rule="evenodd" fill="#02303A" cx="124.8" cy="98.1" rx="5.7" ry="5.5"/>
	</g>
	<path fill-rule="evenodd" clip-rule="evenodd" fill="#02303A" d="M158.6,65.5c0.7,0.6,1.6,1.2,2.5,1.8c4.2-3.5,9.7-3.4,14.4-5.3
		c-4.1-3.8-10.7-6.7-12.7-4.3c-0.5,0.6-3.1,2.6-4.2,4.1C156.8,64,157.7,64.7,158.6,65.5z"/>
</g>
</svg>
